<svg xmlns="http://www.w3.org/2000/svg" width="26" height="26" viewBox="0 0 26 26" fill="none">
  <path d="M13.0125 2.16675C7.0477 2.16675 2.19195 7.01832 2.18978 12.9832C2.1887 14.8898 2.68809 16.7512 3.63493 18.3914L2.1665 23.8334L7.83496 22.4941C9.41554 23.3564 11.1949 23.8091 13.0062 23.8101H13.0104C18.9742 23.8101 23.8278 18.9575 23.8311 12.9937C23.8332 10.1023 22.7089 7.38379 20.6657 5.33846C18.6225 3.29421 15.9072 2.16783 13.0125 2.16675ZM13.0104 4.33341C15.3244 4.3345 17.499 5.23669 19.1338 6.87036C20.7685 8.50619 21.6666 10.6798 21.6644 12.9916C21.6622 17.7626 17.7815 21.6435 13.0083 21.6435C11.5642 21.6424 10.1338 21.2798 8.87386 20.5919L8.14388 20.1941L7.33773 20.3845L5.20492 20.8881L5.72542 18.9542L5.96029 18.0867L5.51172 17.308C4.75555 15.9994 4.35536 14.5031 4.35645 12.9832C4.35861 8.21432 8.2405 4.33341 13.0104 4.33341ZM9.18278 7.98966C9.00186 7.98966 8.70935 8.05737 8.46126 8.32821C8.21318 8.59796 7.51335 9.25129 7.51335 10.5816C7.51335 11.912 8.48242 13.1979 8.61784 13.3788C8.75217 13.5587 10.4884 16.3749 13.2368 17.4583C15.5205 18.3585 15.9843 18.1808 16.4805 18.1353C16.9766 18.0909 18.0811 17.4826 18.3065 16.851C18.5318 16.2194 18.5323 15.6761 18.4652 15.5645C18.398 15.4519 18.2176 15.3847 17.9468 15.2493C17.677 15.1138 16.3477 14.4611 16.0996 14.3712C15.8515 14.2813 15.6701 14.2358 15.4902 14.5066C15.3104 14.7774 14.7936 15.3847 14.6354 15.5645C14.4773 15.7455 14.3202 15.7698 14.0493 15.6344C13.7785 15.4979 12.9077 15.2116 11.8742 14.2908C11.0704 13.5747 10.528 12.6912 10.3698 12.4203C10.2127 12.1506 10.355 12.0024 10.4904 11.8681C10.6117 11.7467 10.7591 11.5523 10.8945 11.3941C11.0289 11.236 11.0754 11.1233 11.1654 10.9434C11.2553 10.7636 11.2093 10.6049 11.1421 10.4695C11.0749 10.3341 10.5489 8.99879 10.3084 8.46362C10.1058 8.01404 9.89189 8.0036 9.69906 7.99601C9.54197 7.98951 9.36261 7.98966 9.18278 7.98966Z" fill="#009994"/>
</svg>